<?xml version="1.0" encoding="UTF-8"?>
<!DOCTYPE svg PUBLIC "-//W3C//DTD SVG 1.1//EN" "http://www.w3.org/Graphics/SVG/1.1/DTD/svg11.dtd">
<svg xmlns="http://www.w3.org/2000/svg" version="1.1" width="2047px" height="484px" style="shape-rendering:geometricPrecision; text-rendering:geometricPrecision; image-rendering:optimizeQuality; fill-rule:evenodd; clip-rule:evenodd" xmlns:xlink="http://www.w3.org/1999/xlink">
<g><path style="opacity:0.116" fill="#000000" d="M 177.5,20.5 C 192.913,17.9432 207.913,19.7765 222.5,26C 228.921,29.6698 232.755,35.1698 234,42.5C 234.733,54.5737 234.066,66.5737 232,78.5C 227.996,90.6387 219.496,96.3053 206.5,95.5C 193.809,95.6328 184.476,90.1328 178.5,79C 175.975,78.1041 173.808,78.6041 172,80.5C 168.483,87.0507 166.15,94.0507 165,101.5C 163.132,114.789 162.132,128.123 162,141.5C 162.465,142.931 163.299,144.097 164.5,145C 211.371,165.573 235.704,201.573 237.5,253C 235.638,308.174 208.638,344.507 156.5,362C 154.714,362.785 153.214,363.951 152,365.5C 147.95,394.648 139.283,422.315 126,448.5C 115.82,465.195 101.653,476.862 83.5,483.5C 66.8333,483.5 50.1667,483.5 33.5,483.5C 19.858,479.092 13.1914,469.592 13.5,455C 13.7933,444.381 14.96,433.881 17,423.5C 19.8029,417.527 24.3029,413.527 30.5,411.5C 29.9581,422.503 29.2915,433.503 28.5,444.5C 28.8333,446.833 29.1667,449.167 29.5,451.5C 74.3575,466.321 105.191,451.655 122,407.5C 130.015,384.439 135.348,360.773 138,336.5C 191.391,325.895 219.558,293.395 222.5,239C 220.507,188.187 195.174,155.687 146.5,141.5C 145.86,118.661 147.693,95.9942 152,73.5C 154.128,62.7259 159.628,54.2259 168.5,48C 184.02,43.7605 193.02,49.5938 195.5,65.5C 202.833,65.5 210.167,65.5 217.5,65.5C 218.624,52.5158 219.124,39.5158 219,26.5C 205.732,21.0544 191.898,19.0544 177.5,20.5 Z"/></g>
<g><path style="opacity:0.08" fill="#000000" d="M 177.5,20.5 C 156.668,25.4858 141.168,37.4858 131,56.5C 126.016,66.4516 122.016,76.7849 119,87.5C 114.559,105.038 110.893,122.705 108,140.5C 59.8892,149.945 32.2225,178.945 25,227.5C 21.6406,272.964 39.8073,306.464 79.5,328C 86.5737,331.08 93.907,333.247 101.5,334.5C 100.384,353.18 98.8836,371.846 97,390.5C 95.9868,402.223 92.6535,413.223 87,423.5C 78.2512,434.085 68.5845,435.085 58,426.5C 54.7224,421.948 52.5558,416.948 51.5,411.5C 55.4406,412.471 58.774,414.471 61.5,417.5C 63.9749,421.142 66.6415,424.642 69.5,428C 71.7008,428.825 73.5341,428.325 75,426.5C 78.7208,418.24 81.0541,409.574 82,400.5C 83.7191,387.542 84.3858,374.542 84,361.5C 31.6255,338.464 6.95887,298.131 10,240.5C 16.1983,190.924 43.0317,158.424 90.5,143C 92.286,142.215 93.786,141.049 95,139.5C 98.7423,114.192 105.742,89.8591 116,66.5C 126.589,44.5779 143.422,29.7446 166.5,22C 170.114,21.0642 173.78,20.5642 177.5,20.5 Z"/></g>
<g><path style="opacity:0.999" fill="#475563" d="M 177.5,20.5 C 191.898,19.0544 205.732,21.0544 219,26.5C 219.124,39.5158 218.624,52.5158 217.5,65.5C 210.167,65.5 202.833,65.5 195.5,65.5C 193.02,49.5938 184.02,43.7605 168.5,48C 159.628,54.2259 154.128,62.7259 152,73.5C 147.693,95.9942 145.86,118.661 146.5,141.5C 195.174,155.687 220.507,188.187 222.5,239C 219.558,293.395 191.391,325.895 138,336.5C 135.348,360.773 130.015,384.439 122,407.5C 105.191,451.655 74.3575,466.321 29.5,451.5C 29.1667,449.167 28.8333,446.833 28.5,444.5C 29.2915,433.503 29.9581,422.503 30.5,411.5C 37.3979,408.88 44.3979,408.88 51.5,411.5C 52.5558,416.948 54.7224,421.948 58,426.5C 68.5845,435.085 78.2512,434.085 87,423.5C 92.6535,413.223 95.9868,402.223 97,390.5C 98.8836,371.846 100.384,353.18 101.5,334.5C 93.907,333.247 86.5737,331.08 79.5,328C 39.8073,306.464 21.6406,272.964 25,227.5C 32.2225,178.945 59.8892,149.945 108,140.5C 110.893,122.705 114.559,105.038 119,87.5C 122.016,76.7849 126.016,66.4516 131,56.5C 141.168,37.4858 156.668,25.4858 177.5,20.5 Z M 85.5,206.5 C 86.5,206.5 87.5,206.5 88.5,206.5C 87.8989,236.837 87.2322,267.17 86.5,297.5C 83.3864,296.909 80.8864,295.242 79,292.5C 61.8072,267.304 61.1405,241.638 77,215.5C 79.3622,211.973 82.1955,208.973 85.5,206.5 Z M 160.5,207.5 C 162.861,208.435 165.028,209.768 167,211.5C 185.957,238.264 186.291,265.264 168,292.5C 161.301,301.323 158.135,300.323 158.5,289.5C 159.111,262.132 159.778,234.798 160.5,207.5 Z"/></g>
<g><path style="opacity:0.999" fill="#475563" d="M 993.5,44.5 C 1014,50.5101 1025.83,64.1767 1029,85.5C 1029.5,115.832 1029.67,146.165 1029.5,176.5C 1070.17,176.5 1110.83,176.5 1151.5,176.5C 1152.83,176.5 1154.17,176.5 1155.5,176.5C 1155.5,185.5 1155.5,194.5 1155.5,203.5C 1113.5,203.5 1071.5,203.5 1029.5,203.5C 1029.33,231.169 1029.5,258.835 1030,286.5C 1029.69,303.227 1034.02,318.561 1043,332.5C 1054.27,345.811 1068.44,350.311 1085.5,346C 1104.72,340.411 1116.89,327.911 1122,308.5C 1125.18,297.146 1125.18,285.813 1122,274.5C 1116.48,262.598 1107.64,259.098 1095.5,264C 1087.57,271.528 1086.41,280.028 1092,289.5C 1093.63,290.726 1095.13,292.059 1096.5,293.5C 1091.57,300.604 1086.07,307.27 1080,313.5C 1062.61,299.983 1057.27,282.65 1064,261.5C 1076.07,239.394 1094.57,231.228 1119.5,237C 1134.81,242.307 1144.64,252.807 1149,268.5C 1156.51,307.994 1144.34,339.828 1112.5,364C 1088.98,376.796 1064.98,377.796 1040.5,367C 1022.81,355.494 1011.65,339.328 1007,318.5C 1005.61,312.564 1004.61,306.564 1004,300.5C 1003.5,268.168 1003.33,235.835 1003.5,203.5C 989.833,203.5 976.167,203.5 962.5,203.5C 962.5,194.833 962.5,186.167 962.5,177.5C 963.919,176.549 965.585,176.216 967.5,176.5C 979.5,176.5 991.5,176.5 1003.5,176.5C 1003.92,147.14 1003.42,117.806 1002,88.5C 997.673,74.4135 988.173,68.5801 973.5,71C 963.492,74.1823 958.825,81.0157 959.5,91.5C 950.167,91.5 940.833,91.5 931.5,91.5C 933.012,67.6702 945.012,52.0036 967.5,44.5C 976.167,41.8333 984.833,41.8333 993.5,44.5 Z M 1047.5,311.5 C 1051.3,317.067 1055.13,322.734 1059,328.5C 1065.12,336.812 1073.29,340.646 1083.5,340C 1089.39,338.027 1094.72,335.36 1099.5,332C 1088.55,345.737 1075.22,348.737 1059.5,341C 1051.51,332.852 1047.51,323.019 1047.5,311.5 Z"/></g>
<g><path style="opacity:0.112" fill="#000101" d="M 967.5,44.5 C 945.012,52.0036 933.012,67.6702 931.5,91.5C 940.833,91.5 950.167,91.5 959.5,91.5C 958.825,81.0157 963.492,74.1823 973.5,71C 988.173,68.5801 997.673,74.4135 1002,88.5C 1003.42,117.806 1003.92,147.14 1003.5,176.5C 991.5,176.5 979.5,176.5 967.5,176.5C 972.985,175.673 978.652,175.173 984.5,175C 985.416,174.626 986.25,174.126 987,173.5C 987.958,150.783 987.624,128.116 986,105.5C 984.093,101.99 981.26,100.824 977.5,102C 974.086,106.809 970.419,111.476 966.5,116C 951.938,123.551 937.604,123.217 923.5,115C 919.221,110.569 917.221,105.236 917.5,99C 921.158,68.8441 937.825,50.6774 967.5,44.5 Z"/></g>
<g><path style="opacity:0.041" fill="#000101" d="M 993.5,44.5 C 1022.79,50.6776 1039.62,68.6776 1044,98.5C 1045.2,123.146 1045.87,147.813 1046,172.5C 1046.5,173 1047,173.5 1047.5,174C 1082.25,175.153 1116.92,175.986 1151.5,176.5C 1110.83,176.5 1070.17,176.5 1029.5,176.5C 1029.67,146.165 1029.5,115.832 1029,85.5C 1025.83,64.1767 1014,50.5101 993.5,44.5 Z"/></g>
<g><path style="opacity:0.998" fill="#0da0bb" d="M 1380.5,66.5 C 1394.91,77.8692 1411.25,85.2026 1429.5,88.5C 1440.5,86.5003 1449.5,81.167 1456.5,72.5C 1458.35,71.4271 1460.35,71.4271 1462.5,72.5C 1465.95,74.7299 1469.62,76.7299 1473.5,78.5C 1462.17,95.6684 1447.5,109.168 1429.5,119C 1405.97,127.207 1383.81,124.374 1363,110.5C 1355.81,117.853 1350.98,126.52 1348.5,136.5C 1349.17,143.681 1350.67,150.681 1353,157.5C 1364,176.833 1375,196.167 1386,215.5C 1401.97,253.129 1394.8,285.629 1364.5,313C 1358.12,318.385 1351.45,323.385 1344.5,328C 1343.36,328.749 1342.36,328.583 1341.5,327.5C 1338.7,323.402 1336.04,319.235 1333.5,315C 1340.89,309.615 1347.73,303.448 1354,296.5C 1357.87,290.34 1359.21,283.673 1358,276.5C 1353.32,258.138 1345.65,241.138 1335,225.5C 1325.11,208.735 1318.95,190.735 1316.5,171.5C 1318.12,151.603 1324.79,133.603 1336.5,117.5C 1331.12,105.279 1322.12,97.1122 1309.5,93C 1290.88,91.9023 1278.05,100.069 1271,117.5C 1265.5,132 1262.17,147 1261,162.5C 1258.25,192.682 1259.58,222.682 1265,252.5C 1282.57,335.058 1331.41,362.892 1411.5,336C 1430.12,324.884 1446.12,310.717 1459.5,293.5C 1461.83,290.833 1464.17,290.833 1466.5,293.5C 1469.14,295.969 1471.98,298.302 1475,300.5C 1475.67,301.5 1475.67,302.5 1475,303.5C 1434.3,374.76 1374.8,397.927 1296.5,373C 1260.84,353.984 1237.68,324.818 1227,285.5C 1216.38,244.553 1214.71,203.22 1222,161.5C 1226.09,137.514 1235.76,116.181 1251,97.5C 1264.38,82.891 1280.88,74.891 1300.5,73.5C 1301.71,72.3143 1303.04,72.3143 1304.5,73.5C 1314.84,74.1155 1324.17,77.6155 1332.5,84C 1337.86,89.2574 1342.86,94.7574 1347.5,100.5C 1356.98,89.5397 1365.98,78.2063 1374.5,66.5C 1376.45,65.3586 1378.45,65.3586 1380.5,66.5 Z M 1301.5,122.5 C 1309.17,122.148 1314.17,125.481 1316.5,132.5C 1311.78,143.269 1307.62,154.269 1304,165.5C 1300.73,178.507 1300.73,191.507 1304,204.5C 1306.88,215.595 1310.88,226.262 1316,236.5C 1323.59,250.008 1330.92,263.674 1338,277.5C 1340.11,282.838 1341.61,288.338 1342.5,294C 1342.32,297.553 1341.15,300.719 1339,303.5C 1333.95,308.554 1328.95,313.554 1324,318.5C 1321.66,322.521 1320.33,326.854 1320,331.5C 1319.44,332.022 1318.77,332.355 1318,332.5C 1304.98,323.47 1295.65,311.47 1290,296.5C 1281.8,275.616 1277.13,253.949 1276,231.5C 1275.33,215.167 1275.33,198.833 1276,182.5C 1276.54,164.463 1280.87,147.463 1289,131.5C 1292.3,127.118 1296.47,124.118 1301.5,122.5 Z"/></g>
<g><path style="opacity:0.009" fill="#000000" d="M 1374.5,66.5 C 1365.98,78.2063 1356.98,89.5397 1347.5,100.5C 1342.86,94.7574 1337.86,89.2574 1332.5,84C 1324.17,77.6155 1314.84,74.1155 1304.5,73.5C 1312.82,73.2639 1320.82,74.7639 1328.5,78C 1334.71,81.5983 1340.71,85.4317 1346.5,89.5C 1348.73,88.7814 1350.56,87.448 1352,85.5C 1357.26,76.3933 1364.76,70.0599 1374.5,66.5 Z"/></g>
<g><path style="opacity:0.005" fill="#000000" d="M 1380.5,66.5 C 1382.56,66.687 1384.56,67.187 1386.5,68C 1396.71,73.6037 1407.04,78.9371 1417.5,84C 1422.76,85.4385 1428.1,85.7718 1433.5,85C 1438.77,82.0589 1443.77,78.7256 1448.5,75C 1451.02,73.6591 1453.69,72.8257 1456.5,72.5C 1449.5,81.167 1440.5,86.5003 1429.5,88.5C 1411.25,85.2026 1394.91,77.8692 1380.5,66.5 Z"/></g>
<g><path style="opacity:0.107" fill="#000000" d="M 1462.5,72.5 C 1481.26,75.7083 1488.09,86.3749 1483,104.5C 1467.98,129.188 1446.48,145.022 1418.5,152C 1401.6,154.296 1385.27,152.13 1369.5,145.5C 1366.34,147.434 1364.67,150.267 1364.5,154C 1366.13,162.229 1368.97,170.063 1373,177.5C 1383.96,193.751 1393.63,210.751 1402,228.5C 1415.42,263.223 1410.75,295.223 1388,324.5C 1382.46,331.003 1376.63,337.17 1370.5,343C 1384.65,343.762 1397.98,340.428 1410.5,333C 1424.72,323.118 1437.39,311.451 1448.5,298C 1451.73,295.384 1455.4,293.884 1459.5,293.5C 1446.12,310.717 1430.12,324.884 1411.5,336C 1331.41,362.892 1282.57,335.058 1265,252.5C 1259.58,222.682 1258.25,192.682 1261,162.5C 1262.17,147 1265.5,132 1271,117.5C 1278.05,100.069 1290.88,91.9023 1309.5,93C 1322.12,97.1122 1331.12,105.279 1336.5,117.5C 1324.79,133.603 1318.12,151.603 1316.5,171.5C 1318.95,190.735 1325.11,208.735 1335,225.5C 1345.65,241.138 1353.32,258.138 1358,276.5C 1359.21,283.673 1357.87,290.34 1354,296.5C 1347.73,303.448 1340.89,309.615 1333.5,315C 1336.04,319.235 1338.7,323.402 1341.5,327.5C 1342.36,328.583 1343.36,328.749 1344.5,328C 1351.45,323.385 1358.12,318.385 1364.5,313C 1394.8,285.629 1401.97,253.129 1386,215.5C 1375,196.167 1364,176.833 1353,157.5C 1350.67,150.681 1349.17,143.681 1348.5,136.5C 1350.98,126.52 1355.81,117.853 1363,110.5C 1383.81,124.374 1405.97,127.207 1429.5,119C 1447.5,109.168 1462.17,95.6684 1473.5,78.5C 1469.62,76.7299 1465.95,74.7299 1462.5,72.5 Z M 1301.5,122.5 C 1296.47,124.118 1292.3,127.118 1289,131.5C 1280.87,147.463 1276.54,164.463 1276,182.5C 1275.33,198.833 1275.33,215.167 1276,231.5C 1277.13,253.949 1281.8,275.616 1290,296.5C 1295.65,311.47 1304.98,323.47 1318,332.5C 1318.77,332.355 1319.44,332.022 1320,331.5C 1320.33,326.854 1321.66,322.521 1324,318.5C 1328.95,313.554 1333.95,308.554 1339,303.5C 1341.15,300.719 1342.32,297.553 1342.5,294C 1341.61,288.338 1340.11,282.838 1338,277.5C 1330.92,263.674 1323.59,250.008 1316,236.5C 1310.88,226.262 1306.88,215.595 1304,204.5C 1300.73,191.507 1300.73,178.507 1304,165.5C 1307.62,154.269 1311.78,143.269 1316.5,132.5C 1314.17,125.481 1309.17,122.148 1301.5,122.5 Z"/></g>
<g><path style="opacity:0.124" fill="#000000" d="M 1300.5,73.5 C 1280.88,74.891 1264.38,82.891 1251,97.5C 1235.76,116.181 1226.09,137.514 1222,161.5C 1214.71,203.22 1216.38,244.553 1227,285.5C 1237.68,324.818 1260.84,353.984 1296.5,373C 1374.8,397.927 1434.3,374.76 1475,303.5C 1475.67,302.5 1475.67,301.5 1475,300.5C 1471.98,298.302 1469.14,295.969 1466.5,293.5C 1487.54,299.577 1493.37,312.577 1484,332.5C 1438.33,404.953 1374.49,428.119 1292.5,402C 1258.77,385.6 1234.6,360.1 1220,325.5C 1204.63,285.912 1198.96,244.912 1203,202.5C 1204.71,171.319 1213.37,142.319 1229,115.5C 1243.45,93.3895 1263.62,79.5561 1289.5,74C 1293.15,73.5014 1296.82,73.3347 1300.5,73.5 Z"/></g>
<g><path style="opacity:0.109" fill="#000000" d="M 493.5,84.5 C 480.815,83.001 468.149,83.1677 455.5,85C 415.037,92.1369 393.537,116.304 391,157.5C 390.667,217.833 390.333,278.167 390,338.5C 390.2,353.135 383.034,361.468 368.5,363.5C 367.511,367.107 367.177,370.774 367.5,374.5C 394.833,374.5 422.167,374.5 449.5,374.5C 449.823,370.774 449.489,367.107 448.5,363.5C 441.752,362.21 435.919,359.21 431,354.5C 429.438,352.043 428.438,349.376 428,346.5C 426.599,323.196 426.099,299.862 426.5,276.5C 433.589,276.116 440.589,276.616 447.5,278C 452,281.167 455.833,285 459,289.5C 473.721,309.221 488.054,329.221 502,349.5C 505.441,358.691 502.274,363.358 492.5,363.5C 492.5,367.167 492.5,370.833 492.5,374.5C 518.833,374.5 545.167,374.5 571.5,374.5C 571.823,370.774 571.489,367.107 570.5,363.5C 565.963,362.154 561.629,360.321 557.5,358C 551.365,352.866 545.531,347.366 540,341.5C 519.616,314.559 499.116,287.726 478.5,261C 496.161,242.673 514.494,225.006 533.5,208C 542.679,200.502 553.012,195.168 564.5,192C 565.456,188.606 565.789,185.106 565.5,181.5C 576.996,185.876 581.496,194.209 579,206.5C 577.3,212.4 573.8,216.9 568.5,220C 559.212,223.976 550.545,228.976 542.5,235C 527.322,247.678 513.322,261.512 500.5,276.5C 501.137,279.107 502.304,281.44 504,283.5C 520.951,306.119 538.284,328.453 556,350.5C 563.98,356.99 572.314,362.99 581,368.5C 587.188,376.763 587.855,385.43 583,394.5C 578.028,400.736 571.528,403.902 563.5,404C 542.833,404.667 522.167,404.667 501.5,404C 485.309,403.098 477.809,394.598 479,378.5C 479.759,375.215 481.092,372.215 483,369.5C 483.667,367.5 483.667,365.5 483,363.5C 471.123,345.294 458.123,327.961 444,311.5C 442.837,313.285 442.17,315.285 442,317.5C 441.477,329.517 441.81,341.517 443,353.5C 443.471,355.246 444.138,356.913 445,358.5C 450.365,362.019 455.365,366.019 460,370.5C 467.777,390.045 461.277,401.211 440.5,404C 419.167,404.667 397.833,404.667 376.5,404C 358.22,402.275 351.054,392.442 355,374.5C 356.738,370.759 359.238,367.592 362.5,365C 367.92,363.212 371.753,359.712 374,354.5C 375.291,292.518 375.958,230.518 376,168.5C 379.06,125.523 401.227,98.0233 442.5,86C 459.571,82.2597 476.571,81.7597 493.5,84.5 Z"/></g>
<g><path style="opacity:0.999" fill="#475562" d="M 493.5,84.5 C 495.95,84.298 498.283,84.6314 500.5,85.5C 501.48,98.087 501.813,110.754 501.5,123.5C 494.167,123.5 486.833,123.5 479.5,123.5C 475.637,105.227 464.637,98.7275 446.5,104C 436.646,109.179 430.812,117.346 429,128.5C 428.003,134.461 427.337,140.461 427,146.5C 426.5,184.832 426.333,223.165 426.5,261.5C 436.417,262.141 445.417,259.641 453.5,254C 466.667,243.5 478.5,231.667 489,218.5C 497.187,203.722 493.187,194.722 477,191.5C 476.502,188.183 476.335,184.85 476.5,181.5C 478.292,180.691 480.292,180.191 482.5,180C 508.5,179.333 534.5,179.333 560.5,180C 562.382,180.198 564.048,180.698 565.5,181.5C 565.789,185.106 565.456,188.606 564.5,192C 553.012,195.168 542.679,200.502 533.5,208C 514.494,225.006 496.161,242.673 478.5,261C 499.116,287.726 519.616,314.559 540,341.5C 545.531,347.366 551.365,352.866 557.5,358C 561.629,360.321 565.963,362.154 570.5,363.5C 571.489,367.107 571.823,370.774 571.5,374.5C 545.167,374.5 518.833,374.5 492.5,374.5C 492.5,370.833 492.5,367.167 492.5,363.5C 502.274,363.358 505.441,358.691 502,349.5C 488.054,329.221 473.721,309.221 459,289.5C 455.833,285 452,281.167 447.5,278C 440.589,276.616 433.589,276.116 426.5,276.5C 426.099,299.862 426.599,323.196 428,346.5C 428.438,349.376 429.438,352.043 431,354.5C 435.919,359.21 441.752,362.21 448.5,363.5C 449.489,367.107 449.823,370.774 449.5,374.5C 422.167,374.5 394.833,374.5 367.5,374.5C 367.177,370.774 367.511,367.107 368.5,363.5C 383.034,361.468 390.2,353.135 390,338.5C 390.333,278.167 390.667,217.833 391,157.5C 393.537,116.304 415.037,92.1369 455.5,85C 468.149,83.1677 480.815,83.001 493.5,84.5 Z"/></g>
<g><path style="opacity:0.098" fill="#000000" d="M 500.5,85.5 C 509.147,88.437 514.314,94.437 516,103.5C 516.667,113.833 516.667,124.167 516,134.5C 512.804,147.703 504.304,154.037 490.5,153.5C 477.164,153.423 467.664,147.423 462,135.5C 458.852,132.449 455.352,131.949 451.5,134C 448.469,136.559 446.302,139.726 445,143.5C 443.038,153.727 442.038,164.06 442,174.5C 441.036,200.882 441.37,227.216 443,253.5C 443.414,253.957 443.914,254.291 444.5,254.5C 456.102,247.065 465.936,237.732 474,226.5C 474.667,224.5 474.667,222.5 474,220.5C 460.252,209.379 459.086,197.212 470.5,184C 472.407,182.878 474.407,182.045 476.5,181.5C 476.335,184.85 476.502,188.183 477,191.5C 493.187,194.722 497.187,203.722 489,218.5C 478.5,231.667 466.667,243.5 453.5,254C 445.417,259.641 436.417,262.141 426.5,261.5C 426.333,223.165 426.5,184.832 427,146.5C 427.337,140.461 428.003,134.461 429,128.5C 430.812,117.346 436.646,109.179 446.5,104C 464.637,98.7275 475.637,105.227 479.5,123.5C 486.833,123.5 494.167,123.5 501.5,123.5C 501.813,110.754 501.48,98.087 500.5,85.5 Z"/></g>
<g><path style="opacity:0.004" fill="#000000" d="M 879.5,93.5 C 874.784,95.7749 869.784,97.6082 864.5,99C 850.089,107.04 835.089,113.706 819.5,119C 816.518,119.498 813.518,119.665 810.5,119.5C 817.958,117.735 825.292,115.235 832.5,112C 842.045,107.061 851.711,102.394 861.5,98C 867.395,95.9774 873.395,94.4774 879.5,93.5 Z"/></g>
<g><path style="opacity:0.997" fill="#475562" d="M 890.5,93.5 C 903.898,99.9697 908.232,110.303 903.5,124.5C 900.167,125.5 896.833,126.5 893.5,127.5C 892.571,128.689 892.238,130.022 892.5,131.5C 887.797,131.437 883.13,131.771 878.5,132.5C 878.5,133.5 878.5,134.5 878.5,135.5C 871.442,134.418 864.442,133.251 857.5,132C 839.878,137.156 822.211,142.156 804.5,147C 799.381,148.592 794.548,150.759 790,153.5C 782.615,151.243 780.615,146.577 784,139.5C 791.08,132.068 798.913,125.735 807.5,120.5C 808.209,119.596 809.209,119.263 810.5,119.5C 813.518,119.665 816.518,119.498 819.5,119C 835.089,113.706 850.089,107.04 864.5,99C 869.784,97.6082 874.784,95.7749 879.5,93.5C 883.065,92.2134 886.732,92.2134 890.5,93.5 Z"/></g>
<g><path style="opacity:0.135" fill="#000000" d="M 890.5,93.5 C 913.58,99.7707 923.08,114.771 919,138.5C 915.833,147 910,152.833 901.5,156C 886.891,163.044 871.558,165.377 855.5,163C 833.637,169.091 811.804,175.257 790,181.5C 771.152,177.135 764.818,165.802 771,147.5C 779.955,134.029 792.122,125.029 807.5,120.5C 798.913,125.735 791.08,132.068 784,139.5C 780.615,146.577 782.615,151.243 790,153.5C 794.548,150.759 799.381,148.592 804.5,147C 822.211,142.156 839.878,137.156 857.5,132C 864.442,133.251 871.442,134.418 878.5,135.5C 878.5,134.5 878.5,133.5 878.5,132.5C 883.13,131.771 887.797,131.437 892.5,131.5C 892.238,130.022 892.571,128.689 893.5,127.5C 896.833,126.5 900.167,125.5 903.5,124.5C 908.232,110.303 903.898,99.9697 890.5,93.5 Z"/></g>
<g><path style="opacity:0.004" fill="#000000" d="M 1998.5,93.5 C 1980.68,100.737 1963.02,108.57 1945.5,117C 1940.7,119.033 1935.7,119.866 1930.5,119.5C 1947.03,114.072 1963.03,107.239 1978.5,99C 1985,96.4433 1991.67,94.61 1998.5,93.5 Z"/></g>
<g><path style="opacity:0.995" fill="#0ea0ba" d="M 2009.5,93.5 C 2022.27,99.0422 2027.1,108.709 2024,122.5C 2023.5,123.667 2022.67,124.5 2021.5,125C 2017.98,125.673 2014.65,126.84 2011.5,128.5C 2011.83,129.167 2012.17,129.833 2012.5,130.5C 2007.48,131.244 2002.48,132.077 1997.5,133C 1997.96,133.414 1998.29,133.914 1998.5,134.5C 1992.87,135.907 1987.53,135.074 1982.5,132C 1980.83,131.333 1979.17,131.333 1977.5,132C 1960.83,136.667 1944.17,141.333 1927.5,146C 1921.02,147.827 1914.85,150.327 1909,153.5C 1902.36,151.223 1900.36,146.889 1903,140.5C 1905.46,137.035 1908.3,133.869 1911.5,131C 1916.57,127.478 1921.57,123.978 1926.5,120.5C 1927.57,119.566 1928.9,119.232 1930.5,119.5C 1935.7,119.866 1940.7,119.033 1945.5,117C 1963.02,108.57 1980.68,100.737 1998.5,93.5C 2002.17,92.1667 2005.83,92.1667 2009.5,93.5 Z"/></g>
<g><path style="opacity:0.135" fill="#000000" d="M 2009.5,93.5 C 2028.32,97.826 2038.32,109.659 2039.5,129C 2039.62,139.433 2035.28,147.433 2026.5,153C 2010.32,162.379 1992.99,165.712 1974.5,163C 1952.91,168.975 1931.41,175.142 1910,181.5C 1896.46,179.961 1888.96,172.461 1887.5,159C 1888.05,152.018 1890.55,145.852 1895,140.5C 1903.58,130.745 1914.08,124.078 1926.5,120.5C 1921.57,123.978 1916.57,127.478 1911.5,131C 1908.3,133.869 1905.46,137.035 1903,140.5C 1900.36,146.889 1902.36,151.223 1909,153.5C 1914.85,150.327 1921.02,147.827 1927.5,146C 1944.17,141.333 1960.83,136.667 1977.5,132C 1979.17,131.333 1980.83,131.333 1982.5,132C 1987.53,135.074 1992.87,135.907 1998.5,134.5C 1998.29,133.914 1997.96,133.414 1997.5,133C 2002.48,132.077 2007.48,131.244 2012.5,130.5C 2012.17,129.833 2011.83,129.167 2011.5,128.5C 2014.65,126.84 2017.98,125.673 2021.5,125C 2022.67,124.5 2023.5,123.667 2024,122.5C 2027.1,108.709 2022.27,99.0422 2009.5,93.5 Z"/></g>
<g><path style="opacity:0.078" fill="#000000" d="M 305.5,112.5 C 297.706,116.295 292.373,122.295 289.5,130.5C 292.861,136.371 297.194,141.538 302.5,146C 318.306,152.434 328.973,147.434 334.5,131C 333.777,126.886 331.777,123.553 328.5,121C 323.603,118.392 318.937,115.559 314.5,112.5C 323.916,114.541 332.249,118.708 339.5,125C 352.574,141.762 350.907,157.095 334.5,171C 332.33,172.586 329.996,173.92 327.5,175C 326.196,175.804 325.529,176.971 325.5,178.5C 331.9,188.312 334.567,199.145 333.5,211C 331.196,244.482 329.196,277.982 327.5,311.5C 327.913,321.838 328.413,332.171 329,342.5C 332.935,355.206 336.435,368.039 339.5,381C 339.016,391.64 334.016,399.306 324.5,404C 310.088,411.127 295.088,413.127 279.5,410C 267.442,404.551 261.109,395.218 260.5,382C 261.541,371.923 263.708,362.089 267,352.5C 268.038,340.527 268.538,328.527 268.5,316.5C 268,290.5 267.5,264.5 267,238.5C 264.54,229.319 262.706,219.986 261.5,210.5C 261.573,199.186 266.239,190.353 275.5,184C 281.046,181.06 286.713,178.394 292.5,176C 293.357,175.311 294.023,174.478 294.5,173.5C 287.752,168.252 282.252,161.918 278,154.5C 273.776,140.751 277.276,129.251 288.5,120C 293.447,115.891 299.113,113.391 305.5,112.5 Z"/></g>
<g><path style="opacity:0.999" fill="#475563" d="M 305.5,112.5 C 308.5,112.5 311.5,112.5 314.5,112.5C 318.937,115.559 323.603,118.392 328.5,121C 331.777,123.553 333.777,126.886 334.5,131C 328.973,147.434 318.306,152.434 302.5,146C 297.194,141.538 292.861,136.371 289.5,130.5C 292.373,122.295 297.706,116.295 305.5,112.5 Z"/></g>
<g><path style="opacity:0.129" fill="#000000" d="M 629.5,161.5 C 625.37,166.131 621.037,170.631 616.5,175C 627.87,175.174 639.203,175.841 650.5,177C 667.907,180.906 677.241,191.739 678.5,209.5C 659.173,208.851 639.84,208.518 620.5,208.5C 623.977,207.677 627.644,207.177 631.5,207C 624.933,205.774 618.6,203.774 612.5,201C 603.135,190.672 603.468,180.506 613.5,170.5C 617.902,165.747 623.235,162.747 629.5,161.5 Z"/></g>
<g><path style="opacity:0.999" fill="#465461" d="M 754.5,161.5 C 750.447,166.057 746.113,170.557 741.5,175C 726.5,175.333 711.5,175.667 696.5,176C 706.259,185.021 710.926,196.187 710.5,209.5C 718.483,208.834 726.483,208.501 734.5,208.5C 736.735,208.205 738.735,208.539 740.5,209.5C 737.065,214.77 732.731,219.27 727.5,223C 721.141,223.169 714.807,223.669 708.5,224.5C 705.685,231.466 701.852,237.799 697,243.5C 676.355,264.242 651.522,277.242 622.5,282.5C 644.079,312.658 665.413,342.991 686.5,373.5C 675.167,374.833 663.833,374.833 652.5,373.5C 632.195,344.028 611.695,314.695 591,285.5C 591.676,279.788 592.842,274.121 594.5,268.5C 595.5,268.5 596.5,268.5 597.5,268.5C 616.607,268.39 634.607,263.89 651.5,255C 663.332,247.671 671.666,237.504 676.5,224.5C 651.84,223.667 627.173,223.167 602.5,223C 607.037,218.631 611.37,214.131 615.5,209.5C 616.919,208.549 618.585,208.216 620.5,208.5C 639.84,208.518 659.173,208.851 678.5,209.5C 677.241,191.739 667.907,180.906 650.5,177C 639.203,175.841 627.87,175.174 616.5,175C 621.037,170.631 625.37,166.131 629.5,161.5C 631.631,160.686 633.964,160.186 636.5,160C 672.833,159.333 709.167,159.333 745.5,160C 748.695,160.181 751.695,160.681 754.5,161.5 Z"/></g>
<g><path style="opacity:0.116" fill="#000000" d="M 754.5,161.5 C 764.187,165.875 767.687,173.208 765,183.5C 757.617,197.789 745.784,205.456 729.5,206.5C 731.291,207.17 732.958,207.837 734.5,208.5C 726.483,208.501 718.483,208.834 710.5,209.5C 710.926,196.187 706.259,185.021 696.5,176C 711.5,175.667 726.5,175.333 741.5,175C 746.113,170.557 750.447,166.057 754.5,161.5 Z"/></g>
<g><path style="opacity:0.129" fill="#000000" d="M 1749.5,161.5 C 1745.52,166.146 1741.19,170.479 1736.5,174.5C 1747.85,175.173 1759.19,176.007 1770.5,177C 1787.91,180.909 1797.24,191.743 1798.5,209.5C 1779.17,208.851 1759.84,208.518 1740.5,208.5C 1743.98,207.677 1747.64,207.177 1751.5,207C 1744.93,205.774 1738.6,203.774 1732.5,201C 1723.13,190.672 1723.47,180.506 1733.5,170.5C 1737.9,165.747 1743.24,162.747 1749.5,161.5 Z"/></g>
<g><path style="opacity:0.998" fill="#0f9eb9" d="M 1874.5,161.5 C 1870.45,166.057 1866.11,170.557 1861.5,175C 1846.5,175.333 1831.5,175.667 1816.5,176C 1826.22,184.954 1830.89,196.121 1830.5,209.5C 1838.48,208.776 1846.48,208.442 1854.5,208.5C 1856.53,208.338 1858.53,208.505 1860.5,209C 1861.06,209.383 1861.39,209.883 1861.5,210.5C 1857,214.83 1852.34,218.997 1847.5,223C 1841.14,223.169 1834.81,223.669 1828.5,224.5C 1825.68,231.466 1821.85,237.799 1817,243.5C 1796.36,264.242 1771.52,277.242 1742.5,282.5C 1764.08,312.658 1785.41,342.991 1806.5,373.5C 1795.17,374.833 1783.83,374.833 1772.5,373.5C 1752.19,344.028 1731.69,314.695 1711,285.5C 1711.68,279.788 1712.84,274.121 1714.5,268.5C 1715.5,268.5 1716.5,268.5 1717.5,268.5C 1739.84,268.662 1760.17,262.495 1778.5,250C 1787.09,243.307 1793.09,234.807 1796.5,224.5C 1771.84,223.667 1747.17,223.167 1722.5,223C 1727.04,218.631 1731.37,214.131 1735.5,209.5C 1736.92,208.549 1738.59,208.216 1740.5,208.5C 1759.84,208.518 1779.17,208.851 1798.5,209.5C 1797.24,191.743 1787.91,180.909 1770.5,177C 1759.19,176.007 1747.85,175.173 1736.5,174.5C 1741.19,170.479 1745.52,166.146 1749.5,161.5C 1751.63,160.686 1753.96,160.186 1756.5,160C 1792.83,159.333 1829.17,159.333 1865.5,160C 1868.69,160.181 1871.69,160.681 1874.5,161.5 Z"/></g>
<g><path style="opacity:0.116" fill="#000000" d="M 1874.5,161.5 C 1884.19,165.875 1887.69,173.208 1885,183.5C 1877.62,197.789 1865.78,205.456 1849.5,206.5C 1851.29,207.17 1852.96,207.837 1854.5,208.5C 1846.48,208.442 1838.48,208.776 1830.5,209.5C 1830.89,196.121 1826.22,184.954 1816.5,176C 1831.5,175.667 1846.5,175.333 1861.5,175C 1866.11,170.557 1870.45,166.057 1874.5,161.5 Z"/></g>
<g><path style="opacity:0.103" fill="#000000" d="M 105.5,164.5 C 106.097,164.735 106.43,165.235 106.5,166C 104.567,184.436 103.4,202.936 103,221.5C 102.749,251.177 102.249,280.843 101.5,310.5C 76.4491,302.614 60.2825,285.947 53,260.5C 44.7121,226.434 53.8788,198.267 80.5,176C 88.4253,171.034 96.7587,167.2 105.5,164.5 Z M 85.5,206.5 C 82.1955,208.973 79.3622,211.973 77,215.5C 61.1405,241.638 61.8072,267.304 79,292.5C 80.8864,295.242 83.3864,296.909 86.5,297.5C 87.2322,267.17 87.8989,236.837 88.5,206.5C 87.5,206.5 86.5,206.5 85.5,206.5 Z"/></g>
<g><path style="opacity:0.102" fill="#000000" d="M 144.5,165.5 C 178.206,177.38 195.54,201.213 196.5,237C 196.574,275.72 178.241,300.554 141.5,311.5C 143.918,262.869 144.918,214.202 144.5,165.5 Z M 160.5,207.5 C 159.778,234.798 159.111,262.132 158.5,289.5C 158.135,300.323 161.301,301.323 168,292.5C 186.291,265.264 185.957,238.264 167,211.5C 165.028,209.768 162.861,208.435 160.5,207.5 Z"/></g>
<g><path style="opacity:0.096" fill="#000000" d="M 1481.5,177.5 C 1481.5,180.5 1481.5,183.5 1481.5,186.5C 1488.24,186.171 1494.91,186.671 1501.5,188C 1507.49,190.659 1511.33,195.159 1513,201.5C 1514.29,237.467 1514.96,273.467 1515,309.5C 1515.72,325.083 1519.72,339.75 1527,353.5C 1537.02,368.831 1551.19,377.664 1569.5,380C 1599.88,383.879 1624.71,374.046 1644,350.5C 1660.97,326.602 1670.64,299.936 1673,270.5C 1673.67,255.167 1673.67,239.833 1673,224.5C 1670.48,188.81 1651.31,170.81 1615.5,170.5C 1605.15,170.575 1595.15,172.408 1585.5,176C 1572.98,185.278 1571.64,195.944 1581.5,208C 1588.89,213.605 1596.55,213.938 1604.5,209C 1610.43,205.079 1615.76,200.412 1620.5,195C 1631.89,186.449 1641.39,188.283 1649,200.5C 1654.24,214.666 1656.74,229.333 1656.5,244.5C 1657.08,278.178 1648.91,309.511 1632,338.5C 1622.1,354.613 1607.77,363.613 1589,365.5C 1568.54,363.378 1556.88,352.045 1554,331.5C 1553.06,325.197 1552.39,318.863 1552,312.5C 1551.5,267.501 1551.33,222.501 1551.5,177.5C 1553.31,177.491 1554.98,177.991 1556.5,179C 1559.72,181.403 1562.72,183.903 1565.5,186.5C 1574.91,178.132 1585.91,172.966 1598.5,171C 1620.57,167.172 1641.24,170.838 1660.5,182C 1677.43,195.685 1686.59,213.519 1688,235.5C 1691.54,268.889 1688.21,301.555 1678,333.5C 1668.96,359.855 1653.13,381.022 1630.5,397C 1599.73,413.513 1568.73,414.179 1537.5,399C 1520.19,387.661 1509.02,371.828 1504,351.5C 1502.23,343.572 1500.9,335.572 1500,327.5C 1499.94,292.474 1499.28,257.474 1498,222.5C 1497.31,219.943 1495.81,218.109 1493.5,217C 1487.75,215.584 1482.08,213.917 1476.5,212C 1465.73,202.652 1464.73,192.318 1473.5,181C 1475.82,179.007 1478.48,177.841 1481.5,177.5 Z M 1631.5,221.5 C 1634.45,222.359 1636.29,224.359 1637,227.5C 1644.22,262.538 1640.88,296.538 1627,329.5C 1622.34,339.984 1615.84,349.151 1607.5,357C 1598.08,364.209 1588.08,365.209 1577.5,360C 1572.56,354.863 1569.73,348.696 1569,341.5C 1566.46,304.868 1565.96,268.201 1567.5,231.5C 1573.32,234.573 1579.32,237.406 1585.5,240C 1596.35,242.036 1606.35,240.036 1615.5,234C 1621.04,229.942 1626.37,225.775 1631.5,221.5 Z"/></g>
<g><path style="opacity:0.998" fill="#0e9fba" d="M 1481.5,177.5 C 1482.95,176.698 1484.62,176.198 1486.5,176C 1506.5,175.333 1526.5,175.333 1546.5,176C 1548.38,176.198 1550.05,176.698 1551.5,177.5C 1551.33,222.501 1551.5,267.501 1552,312.5C 1552.39,318.863 1553.06,325.197 1554,331.5C 1556.88,352.045 1568.54,363.378 1589,365.5C 1607.77,363.613 1622.1,354.613 1632,338.5C 1648.91,309.511 1657.08,278.178 1656.5,244.5C 1656.74,229.333 1654.24,214.666 1649,200.5C 1641.39,188.283 1631.89,186.449 1620.5,195C 1615.76,200.412 1610.43,205.079 1604.5,209C 1596.55,213.938 1588.89,213.605 1581.5,208C 1571.64,195.944 1572.98,185.278 1585.5,176C 1595.15,172.408 1605.15,170.575 1615.5,170.5C 1651.31,170.81 1670.48,188.81 1673,224.5C 1673.67,239.833 1673.67,255.167 1673,270.5C 1670.64,299.936 1660.97,326.602 1644,350.5C 1624.71,374.046 1599.88,383.879 1569.5,380C 1551.19,377.664 1537.02,368.831 1527,353.5C 1519.72,339.75 1515.72,325.083 1515,309.5C 1514.96,273.467 1514.29,237.467 1513,201.5C 1511.33,195.159 1507.49,190.659 1501.5,188C 1494.91,186.671 1488.24,186.171 1481.5,186.5C 1481.5,183.5 1481.5,180.5 1481.5,177.5 Z M 1631.5,221.5 C 1626.37,225.775 1621.04,229.942 1615.5,234C 1606.35,240.036 1596.35,242.036 1585.5,240C 1579.32,237.406 1573.32,234.573 1567.5,231.5C 1565.96,268.201 1566.46,304.868 1569,341.5C 1569.73,348.696 1572.56,354.863 1577.5,360C 1588.08,365.209 1598.08,364.209 1607.5,357C 1615.84,349.151 1622.34,339.984 1627,329.5C 1640.88,296.538 1644.22,262.538 1637,227.5C 1636.29,224.359 1634.45,222.359 1631.5,221.5 Z"/></g>
<g><path style="opacity:1" fill="#475563" d="M 305.5,172.5 C 312.769,171.935 316.936,175.268 318,182.5C 318.667,190.833 318.667,199.167 318,207.5C 314.025,244.071 312.358,280.738 313,317.5C 313.357,325.195 314.024,332.862 315,340.5C 319.394,349.517 322.894,358.85 325.5,368.5C 324.737,372.431 322.403,374.931 318.5,376C 309.434,380.141 299.934,382.641 290,383.5C 281.793,382.501 276.96,378.001 275.5,370C 276.02,361.061 278.187,352.561 282,344.5C 282.333,342.167 282.667,339.833 283,337.5C 283.633,296.16 283.3,254.827 282,213.5C 276.904,205.906 275.237,197.573 277,188.5C 278.167,186 280,184.167 282.5,183C 290.257,179.451 297.924,175.951 305.5,172.5 Z"/></g>
<g><path style="opacity:0.117" fill="#000000" d="M 1155.5,176.5 C 1163.59,179.321 1168.42,184.987 1170,193.5C 1170.67,200.5 1170.67,207.5 1170,214.5C 1168.28,223.886 1162.78,229.719 1153.5,232C 1142.03,232.778 1130.7,233.778 1119.5,235C 1151.83,246.103 1167.5,268.937 1166.5,303.5C 1166.07,337.666 1152.74,365.499 1126.5,387C 1103.07,403.067 1077.4,407.734 1049.5,401C 1018.35,389.837 999.179,368.003 992,335.5C 990.907,329.516 989.907,323.516 989,317.5C 987.77,290.188 987.104,262.855 987,235.5C 979.776,233.573 972.276,232.407 964.5,232C 955.219,229.719 949.719,223.886 948,214.5C 947.137,206.436 947.47,198.436 949,190.5C 951.445,183.886 955.945,179.552 962.5,177.5C 962.5,186.167 962.5,194.833 962.5,203.5C 976.167,203.5 989.833,203.5 1003.5,203.5C 1003.33,235.835 1003.5,268.168 1004,300.5C 1004.61,306.564 1005.61,312.564 1007,318.5C 1011.65,339.328 1022.81,355.494 1040.5,367C 1064.98,377.796 1088.98,376.796 1112.5,364C 1144.34,339.828 1156.51,307.994 1149,268.5C 1144.64,252.807 1134.81,242.307 1119.5,237C 1094.57,231.228 1076.07,239.394 1064,261.5C 1057.27,282.65 1062.61,299.983 1080,313.5C 1086.07,307.27 1091.57,300.604 1096.5,293.5C 1095.13,292.059 1093.63,290.726 1092,289.5C 1086.41,280.028 1087.57,271.528 1095.5,264C 1107.64,259.098 1116.48,262.598 1122,274.5C 1125.18,285.813 1125.18,297.146 1122,308.5C 1116.89,327.911 1104.72,340.411 1085.5,346C 1068.44,350.311 1054.27,345.811 1043,332.5C 1034.02,318.561 1029.69,303.227 1030,286.5C 1029.5,258.835 1029.33,231.169 1029.5,203.5C 1071.5,203.5 1113.5,203.5 1155.5,203.5C 1155.5,194.5 1155.5,185.5 1155.5,176.5 Z M 1047.5,233.5 C 1062.66,233.017 1077.66,233.517 1092.5,235C 1070.35,241.148 1055.18,254.981 1047,276.5C 1045.85,269.662 1045.35,262.662 1045.5,255.5C 1045.67,248.833 1045.83,242.167 1046,235.5C 1046.72,234.956 1047.22,234.289 1047.5,233.5 Z M 1047.5,311.5 C 1047.51,323.019 1051.51,332.852 1059.5,341C 1075.22,348.737 1088.55,345.737 1099.5,332C 1094.72,335.36 1089.39,338.027 1083.5,340C 1073.29,340.646 1065.12,336.812 1059,328.5C 1055.13,322.734 1051.3,317.067 1047.5,311.5 Z"/></g>
<g><path style="opacity:0.004" fill="#000000" d="M 860.5,178.5 C 846.543,178.298 833.043,180.632 820,185.5C 818.234,184.767 816.401,184.433 814.5,184.5C 829.512,179.493 844.846,177.493 860.5,178.5 Z"/></g>
<g><path style="opacity:0.133" fill="#000000" d="M 2011.5,340.5 C 2007.43,342.369 2003.43,344.536 1999.5,347C 1986.82,347.635 1974.15,348.468 1961.5,349.5C 1946.01,349.835 1931.68,346.002 1918.5,338C 1911.83,333.333 1905.17,328.667 1898.5,324C 1893.15,314.937 1889.98,305.104 1889,294.5C 1888.33,288.167 1888.33,281.833 1889,275.5C 1891.58,273.772 1893.08,271.439 1893.5,268.5C 1909.5,264.82 1925.66,263.82 1942,265.5C 1951.04,265.304 1960.04,264.638 1969,263.5C 1977.5,264.055 1986,264.555 1994.5,265C 1998.05,266.028 2001.55,267.195 2005,268.5C 2006.97,268.532 2008.47,267.698 2009.5,266C 2018.95,267.53 2024.79,263.697 2027,254.5C 2027.17,252 2027.33,249.5 2027.5,247C 2025.93,237.873 2024.43,228.706 2023,219.5C 2017.47,193.199 2001.13,179.532 1974,178.5C 1962.11,179.064 1950.61,181.397 1939.5,185.5C 1937.93,184.691 1936.26,184.357 1934.5,184.5C 1949.35,179.702 1964.69,177.535 1980.5,178C 2008.7,181.551 2027.2,196.717 2036,223.5C 2040.18,238.585 2042.18,253.918 2042,269.5C 2038.22,284.939 2028.39,293.772 2012.5,296C 1999.03,295.32 1985.53,294.487 1972,293.5C 1950.79,293.892 1929.63,294.725 1908.5,296C 1905.03,297.692 1903.7,300.525 1904.5,304.5C 1904.68,313.552 1907.35,321.719 1912.5,329C 1922.86,338.181 1934.86,344.181 1948.5,347C 1952.99,347.623 1957.49,348.123 1962,348.5C 1971.82,347.546 1981.66,346.713 1991.5,346C 1998.1,343.861 2004.77,342.028 2011.5,340.5 Z"/></g>
<g><path style="opacity:0.999" fill="#475563" d="M 860.5,178.5 C 875.713,180.853 887.879,188.187 897,200.5C 899.595,205.951 901.595,211.618 903,217.5C 904.622,227.903 906.456,238.237 908.5,248.5C 907.866,253.437 906.366,258.104 904,262.5C 899.887,264.964 895.387,266.13 890.5,266C 888.983,267.508 887.149,268.342 885,268.5C 881.908,267.264 878.741,266.097 875.5,265C 866.997,264.555 858.497,264.055 850,263.5C 834.711,265.652 819.378,265.985 804,264.5C 793.977,264.785 784.143,266.285 774.5,269C 773.587,271.333 772.087,273.166 770,274.5C 767.921,290.78 770.254,306.447 777,321.5C 790.544,334.357 806.377,343.19 824.5,348C 830.293,348.943 836.127,349.443 842,349.5C 854.811,348.373 867.645,347.54 880.5,347C 884.434,344.536 888.434,342.369 892.5,340.5C 895.604,339.225 898.604,339.225 901.5,340.5C 908.386,355.559 905.386,368.393 892.5,379C 889.134,380.566 885.634,381.733 882,382.5C 848.127,383.192 815.294,377.692 783.5,366C 754.17,351.718 739.504,328.051 739.5,295C 740.588,266.734 749.421,241.234 766,218.5C 770.532,213.633 775.366,209.133 780.5,205C 790.232,198.477 799.899,191.977 809.5,185.5C 810.919,184.549 812.585,184.216 814.5,184.5C 816.401,184.433 818.234,184.767 820,185.5C 833.043,180.632 846.543,178.298 860.5,178.5 Z M 831.5,232.5 C 838.361,231.965 845.028,232.798 851.5,235C 855.127,237.112 855.127,238.779 851.5,240C 841.816,240.547 832.149,240.88 822.5,241C 820.114,240.716 819.448,239.716 820.5,238C 823.99,235.588 827.657,233.755 831.5,232.5 Z"/></g>
<g><path style="opacity:0.134" fill="#000000" d="M 860.5,178.5 C 888.095,181.202 906.595,195.536 916,221.5C 919.965,236.288 922.298,251.288 923,266.5C 920.377,284.123 910.21,293.956 892.5,296C 879.187,295.338 865.854,294.505 852.5,293.5C 832.837,294.145 813.171,294.645 793.5,295C 785.6,295.62 782.766,299.786 785,307.5C 785.519,320.335 791.353,329.835 802.5,336C 814.55,344.181 827.883,348.347 842.5,348.5C 852.164,347.637 861.831,346.803 871.5,346C 878.511,344.049 885.511,342.216 892.5,340.5C 888.434,342.369 884.434,344.536 880.5,347C 867.645,347.54 854.811,348.373 842,349.5C 836.127,349.443 830.293,348.943 824.5,348C 806.377,343.19 790.544,334.357 777,321.5C 770.254,306.447 767.921,290.78 770,274.5C 772.087,273.166 773.587,271.333 774.5,269C 784.143,266.285 793.977,264.785 804,264.5C 819.378,265.985 834.711,265.652 850,263.5C 858.497,264.055 866.997,264.555 875.5,265C 878.741,266.097 881.908,267.264 885,268.5C 887.149,268.342 888.983,267.508 890.5,266C 895.387,266.13 899.887,264.964 904,262.5C 906.366,258.104 907.866,253.437 908.5,248.5C 906.456,238.237 904.622,227.903 903,217.5C 901.595,211.618 899.595,205.951 897,200.5C 887.879,188.187 875.713,180.853 860.5,178.5 Z"/></g>
<g><path style="opacity:0.996" fill="#0da0bb" d="M 2011.5,340.5 C 2014.83,339.167 2018.17,339.167 2021.5,340.5C 2027.59,354.934 2024.92,367.434 2013.5,378C 2009.93,380.201 2006.1,381.701 2002,382.5C 1967.05,383.11 1933.22,377.277 1900.5,365C 1879.08,354.665 1865.91,337.831 1861,314.5C 1855.65,276.214 1865.49,242.381 1890.5,213C 1903.6,202.042 1917.6,192.542 1932.5,184.5C 1933.17,184.5 1933.83,184.5 1934.5,184.5C 1936.26,184.357 1937.93,184.691 1939.5,185.5C 1950.61,181.397 1962.11,179.064 1974,178.5C 2001.13,179.532 2017.47,193.199 2023,219.5C 2024.43,228.706 2025.93,237.873 2027.5,247C 2027.33,249.5 2027.17,252 2027,254.5C 2024.79,263.697 2018.95,267.53 2009.5,266C 2008.47,267.698 2006.97,268.532 2005,268.5C 2001.55,267.195 1998.05,266.028 1994.5,265C 1986,264.555 1977.5,264.055 1969,263.5C 1960.04,264.638 1951.04,265.304 1942,265.5C 1925.66,263.82 1909.5,264.82 1893.5,268.5C 1893.08,271.439 1891.58,273.772 1889,275.5C 1888.33,281.833 1888.33,288.167 1889,294.5C 1889.98,305.104 1893.15,314.937 1898.5,324C 1905.17,328.667 1911.83,333.333 1918.5,338C 1931.68,346.002 1946.01,349.835 1961.5,349.5C 1974.15,348.468 1986.82,347.635 1999.5,347C 2003.43,344.536 2007.43,342.369 2011.5,340.5 Z M 1950.5,232.5 C 1958.19,231.736 1965.52,232.902 1972.5,236C 1973.93,237.714 1973.59,239.047 1971.5,240C 1961.48,240.537 1951.48,240.871 1941.5,241C 1940.38,240.751 1939.38,240.251 1938.5,239.5C 1942.06,236.241 1946.06,233.907 1950.5,232.5 Z"/></g>
<g><path style="opacity:0.122" fill="#000000" d="M 1932.5,184.5 C 1917.6,192.542 1903.6,202.042 1890.5,213C 1865.49,242.381 1855.65,276.214 1861,314.5C 1865.91,337.831 1879.08,354.665 1900.5,365C 1933.22,377.277 1967.05,383.11 2002,382.5C 2006.1,381.701 2009.93,380.201 2013.5,378C 2024.92,367.434 2027.59,354.934 2021.5,340.5C 2031.53,343.831 2037.36,350.831 2039,361.5C 2041.37,382.26 2033.54,397.76 2015.5,408C 2006.19,410.553 1996.69,411.72 1987,411.5C 1951.91,410.884 1918.41,403.384 1886.5,389C 1860.83,372.618 1846.67,349.118 1844,318.5C 1842.83,295.187 1847,272.854 1856.5,251.5C 1854.58,250.359 1852.58,250.192 1850.5,251C 1846.88,252.156 1843.21,253.156 1839.5,254C 1828.07,269.099 1814.4,281.766 1798.5,292C 1788.65,296.76 1778.98,301.76 1769.5,307C 1782.72,327.27 1796.55,347.103 1811,366.5C 1825.48,391.519 1818.15,404.186 1789,404.5C 1776.22,405.817 1765.55,401.817 1757,392.5C 1737.28,364.441 1717.94,336.107 1699,307.5C 1694.53,293.889 1697.36,282.055 1707.5,272C 1709.61,270.354 1711.94,269.188 1714.5,268.5C 1712.84,274.121 1711.68,279.788 1711,285.5C 1731.69,314.695 1752.19,344.028 1772.5,373.5C 1783.83,374.833 1795.17,374.833 1806.5,373.5C 1785.41,342.991 1764.08,312.658 1742.5,282.5C 1771.52,277.242 1796.36,264.242 1817,243.5C 1821.85,237.799 1825.68,231.466 1828.5,224.5C 1834.81,223.669 1841.14,223.169 1847.5,223C 1852.34,218.997 1857,214.83 1861.5,210.5C 1866.59,212.425 1870.26,215.925 1872.5,221C 1873.5,221.667 1874.5,221.667 1875.5,221C 1889.22,206.973 1904.89,195.64 1922.5,187C 1925.72,185.648 1929.05,184.814 1932.5,184.5 Z"/></g>
<g><path style="opacity:0.122" fill="#000000" d="M 809.5,185.5 C 799.899,191.977 790.232,198.477 780.5,205C 775.366,209.133 770.532,213.633 766,218.5C 749.421,241.234 740.588,266.734 739.5,295C 739.504,328.051 754.17,351.718 783.5,366C 815.294,377.692 848.127,383.192 882,382.5C 885.634,381.733 889.134,380.566 892.5,379C 905.386,368.393 908.386,355.559 901.5,340.5C 910.913,343.417 916.746,349.751 919,359.5C 922.523,382.29 914.023,398.79 893.5,409C 873.858,412.141 854.191,412.141 834.5,409C 810.284,405.865 787.284,398.865 765.5,388C 741.988,372.497 728.488,350.664 725,322.5C 722.826,298.876 726.493,276.21 736,254.5C 736.798,252.741 736.631,251.074 735.5,249.5C 730.259,251.302 724.926,252.802 719.5,254C 708.069,269.099 694.402,281.766 678.5,292C 668.645,296.76 658.978,301.76 649.5,307C 662.717,327.27 676.551,347.103 691,366.5C 705.484,391.519 698.151,404.186 669,404.5C 656.222,405.817 645.555,401.817 637,392.5C 617.276,364.441 597.942,336.107 579,307.5C 574.528,293.889 577.361,282.055 587.5,272C 589.609,270.354 591.943,269.188 594.5,268.5C 592.842,274.121 591.676,279.788 591,285.5C 611.695,314.695 632.195,344.028 652.5,373.5C 663.833,374.833 675.167,374.833 686.5,373.5C 665.413,342.991 644.079,312.658 622.5,282.5C 651.522,277.242 676.355,264.242 697,243.5C 701.852,237.799 705.685,231.466 708.5,224.5C 714.807,223.669 721.141,223.169 727.5,223C 732.731,219.27 737.065,214.77 740.5,209.5C 746.478,212.145 750.812,216.478 753.5,222.5C 762.442,213.719 772.109,205.886 782.5,199C 787.001,196.584 791.334,193.917 795.5,191C 799.879,188.306 804.546,186.473 809.5,185.5 Z"/></g>
<g><path style="opacity:0.188" fill="#000000" d="M 829.5,202.5 C 842.929,200.775 855.263,203.608 866.5,211C 870.399,215.021 872.566,219.855 873,225.5C 873.667,229.833 873.667,234.167 873,238.5C 872.5,239 872,239.5 871.5,240C 841.21,242.213 810.876,243.213 780.5,243C 788.447,232.053 797.447,222.053 807.5,213C 814.585,208.621 821.919,205.121 829.5,202.5 Z M 831.5,232.5 C 827.657,233.755 823.99,235.588 820.5,238C 819.448,239.716 820.114,240.716 822.5,241C 832.149,240.88 841.816,240.547 851.5,240C 855.127,238.779 855.127,237.112 851.5,235C 845.028,232.798 838.361,231.965 831.5,232.5 Z"/></g>
<g><path style="opacity:0.188" fill="#000000" d="M 1949.5,202.5 C 1964.56,200.579 1977.73,204.579 1989,214.5C 1992.28,221.493 1993.61,228.827 1993,236.5C 1992.53,237.931 1991.7,239.097 1990.5,240C 1960.21,242.233 1929.88,243.233 1899.5,243C 1907.8,233.035 1916.46,223.369 1925.5,214C 1933.04,208.896 1941.04,205.063 1949.5,202.5 Z M 1950.5,232.5 C 1946.06,233.907 1942.06,236.241 1938.5,239.5C 1939.38,240.251 1940.38,240.751 1941.5,241C 1951.48,240.871 1961.48,240.537 1971.5,240C 1973.59,239.047 1973.93,237.714 1972.5,236C 1965.52,232.902 1958.19,231.736 1950.5,232.5 Z"/></g>
<g><path style="opacity:0.124" fill="#000000" d="M 615.5,209.5 C 611.37,214.131 607.037,218.631 602.5,223C 627.173,223.167 651.84,223.667 676.5,224.5C 671.666,237.504 663.332,247.671 651.5,255C 634.607,263.89 616.607,268.39 597.5,268.5C 609.999,266.965 622.332,264.131 634.5,260C 637.726,258.894 640.393,257.061 642.5,254.5C 630.48,253.839 618.48,253.005 606.5,252C 591.323,246.459 587.823,236.626 596,222.5C 598.833,219.667 601.667,216.833 604.5,214C 607.971,211.928 611.638,210.428 615.5,209.5 Z"/></g>
<g><path style="opacity:0.124" fill="#000000" d="M 1735.5,209.5 C 1731.37,214.131 1727.04,218.631 1722.5,223C 1747.17,223.167 1771.84,223.667 1796.5,224.5C 1793.09,234.807 1787.09,243.307 1778.5,250C 1760.17,262.495 1739.84,268.662 1717.5,268.5C 1730,266.965 1742.33,264.131 1754.5,260C 1757.73,258.894 1760.39,257.061 1762.5,254.5C 1750.48,253.839 1738.48,253.005 1726.5,252C 1711.32,246.459 1707.82,236.626 1716,222.5C 1718.83,219.667 1721.67,216.833 1724.5,214C 1727.97,211.928 1731.64,210.428 1735.5,209.5 Z"/></g>
</svg>
